HIERARCHY
ROOT Hips
{
  OFFSET 0.000 67.407 0.000
  CHANNELS 6 Xposition Yposition Zposition Zrotation Xrotation Yrotation
  JOINT LeftUpLeg
  {
    OFFSET 7.079 1.081 3.332
    CHANNELS 6 Xposition Yposition Zposition Zrotation Xrotation Yrotation
    JOINT LeftLeg
    {
      OFFSET 0.000 -35.918 0.000
      CHANNELS 6 Xposition Yposition Zposition Zrotation Xrotation Yrotation
      JOINT LeftFoot
      {
        OFFSET 0.000 -32.569 0.000
        CHANNELS 6 Xposition Yposition Zposition Zrotation Xrotation Yrotation
        End Site
        {
          OFFSET 0.000 0.000 9.769
        }
      }
    }
  }
  JOINT RightUpLeg
  {
    OFFSET -7.079 1.081 3.332
    CHANNELS 6 Xposition Yposition Zposition Zrotation Xrotation Yrotation
    JOINT RightLeg
    {
      OFFSET 0.000 -35.918 0.000
      CHANNELS 6 Xposition Yposition Zposition Zrotation Xrotation Yrotation
      JOINT RightFoot
      {
        OFFSET 0.000 -32.569 0.000
        CHANNELS 6 Xposition Yposition Zposition Zrotation Xrotation Yrotation
        End Site
        {
          OFFSET 0.000 0.000 9.769
        }
      }
    }
  }
  JOINT Spine
  {
    OFFSET 0.000 30.804 0.000
    CHANNELS 6 Xposition Yposition Zposition Zrotation Xrotation Yrotation
    JOINT Spine1
    {
      OFFSET 0.000 22.765 0.000
      CHANNELS 6 Xposition Yposition Zposition Zrotation Xrotation Yrotation
      JOINT LeftShoulder
      {
        OFFSET 1.661 -0.416 0.134
        CHANNELS 6 Xposition Yposition Zposition Zrotation Xrotation Yrotation
        JOINT LeftArm
        {
          OFFSET 15.436 0.000 0.000
          CHANNELS 6 Xposition Yposition Zposition Zrotation Xrotation Yrotation
          JOINT LeftForeArm
          {
            OFFSET 25.556 0.000 0.000
            CHANNELS 6 Xposition Yposition Zposition Zrotation Xrotation Yrotation
            JOINT LeftHand
            {
              OFFSET 22.496 0.000 0.000
              CHANNELS 6 Xposition Yposition Zposition Zrotation Xrotation Yrotation
              JOINT LeftHandThumb1
              {
                OFFSET 0.000 0.000 0.000
                CHANNELS 6 Xposition Yposition Zposition Zrotation Xrotation Yrotation
                JOINT LeftHandThumb2
                {
                  OFFSET 0.000 0.000 0.000
                  CHANNELS 6 Xposition Yposition Zposition Zrotation Xrotation Yrotation
                  JOINT LeftHandThumb3
                  {
                    OFFSET 0.000 0.000 0.000
                    CHANNELS 6 Xposition Yposition Zposition Zrotation Xrotation Yrotation
                    End Site
                    {
                      OFFSET 0.000 0.000 0.000
                    }
                  }
                }
              }
              JOINT LeftHandIndex1
              {
                OFFSET 0.000 0.000 0.000
                CHANNELS 6 Xposition Yposition Zposition Zrotation Xrotation Yrotation
                JOINT LeftHandIndex2
                {
                  OFFSET 0.000 0.000 0.000
                  CHANNELS 6 Xposition Yposition Zposition Zrotation Xrotation Yrotation
                  JOINT LeftHandIndex3
                  {
                    OFFSET 0.000 0.000 0.000
                    CHANNELS 6 Xposition Yposition Zposition Zrotation Xrotation Yrotation
                    End Site
                    {
                      OFFSET 0.000 0.000 0.000
                    }
                  }
                }
              }
              JOINT LeftHandMiddle1
              {
                OFFSET 0.000 0.000 0.000
                CHANNELS 6 Xposition Yposition Zposition Zrotation Xrotation Yrotation
                JOINT LeftHandMiddle2
                {
                  OFFSET 0.000 0.000 0.000
                  CHANNELS 6 Xposition Yposition Zposition Zrotation Xrotation Yrotation
                  JOINT LeftHandMiddle3
                  {
                    OFFSET 0.000 0.000 0.000
                    CHANNELS 6 Xposition Yposition Zposition Zrotation Xrotation Yrotation
                    End Site
                    {
                      OFFSET 0.000 0.000 0.000
                    }
                  }
                }
              }
              JOINT LeftHandRing1
              {
                OFFSET 0.000 0.000 0.000
                CHANNELS 6 Xposition Yposition Zposition Zrotation Xrotation Yrotation
                JOINT LeftHandRing2
                {
                  OFFSET 0.000 0.000 0.000
                  CHANNELS 6 Xposition Yposition Zposition Zrotation Xrotation Yrotation
                  JOINT LeftHandRing3
                  {
                    OFFSET 0.000 0.000 0.000
                    CHANNELS 6 Xposition Yposition Zposition Zrotation Xrotation Yrotation
                    End Site
                    {
                      OFFSET 0.000 0.000 0.000
                    }
                  }
                }
              }
              JOINT LeftHandPinky1
              {
                OFFSET 0.000 0.000 0.000
                CHANNELS 6 Xposition Yposition Zposition Zrotation Xrotation Yrotation
                JOINT LeftHandPinky2
                {
                  OFFSET 0.000 0.000 0.000
                  CHANNELS 6 Xposition Yposition Zposition Zrotation Xrotation Yrotation
                  JOINT LeftHandPinky3
                  {
                    OFFSET 0.000 0.000 0.000
                    CHANNELS 6 Xposition Yposition Zposition Zrotation Xrotation Yrotation
                    End Site
                    {
                      OFFSET 0.000 0.000 0.000
                    }
                  }
                }
              }
            }
          }
        }
      }
      JOINT RightShoulder
      {
        OFFSET -1.661 -0.416 0.134
        CHANNELS 6 Xposition Yposition Zposition Zrotation Xrotation Yrotation
        JOINT RightArm
        {
          OFFSET -15.436 0.000 0.000
          CHANNELS 6 Xposition Yposition Zposition Zrotation Xrotation Yrotation
          JOINT RightForeArm
          {
            OFFSET -25.556 0.000 0.000
            CHANNELS 6 Xposition Yposition Zposition Zrotation Xrotation Yrotation
            JOINT RightHand
            {
              OFFSET -22.496 0.000 0.000
              CHANNELS 6 Xposition Yposition Zposition Zrotation Xrotation Yrotation
              JOINT RightHandThumb1
              {
                OFFSET -0.000 0.000 0.000
                CHANNELS 6 Xposition Yposition Zposition Zrotation Xrotation Yrotation
                JOINT RightHandThumb2
                {
                  OFFSET -0.000 0.000 0.000
                  CHANNELS 6 Xposition Yposition Zposition Zrotation Xrotation Yrotation
                  JOINT RightHandThumb3
                  {
                    OFFSET -0.000 0.000 0.000
                    CHANNELS 6 Xposition Yposition Zposition Zrotation Xrotation Yrotation
                    End Site
                    {
                      OFFSET -0.000 0.000 0.000
                    }
                  }
                }
              }
              JOINT RightHandIndex1
              {
                OFFSET -0.000 0.000 0.000
                CHANNELS 6 Xposition Yposition Zposition Zrotation Xrotation Yrotation
                JOINT RightHandIndex2
                {
                  OFFSET -0.000 0.000 0.000
                  CHANNELS 6 Xposition Yposition Zposition Zrotation Xrotation Yrotation
                  JOINT RightHandIndex3
                  {
                    OFFSET -0.000 0.000 0.000
                    CHANNELS 6 Xposition Yposition Zposition Zrotation Xrotation Yrotation
                    End Site
                    {
                      OFFSET -0.000 0.000 0.000
                    }
                  }
                }
              }
              JOINT RightHandMiddle1
              {
                OFFSET -0.000 0.000 0.000
                CHANNELS 6 Xposition Yposition Zposition Zrotation Xrotation Yrotation
                JOINT RightHandMiddle2
                {
                  OFFSET -0.000 0.000 0.000
                  CHANNELS 6 Xposition Yposition Zposition Zrotation Xrotation Yrotation
                  JOINT RightHandMiddle3
                  {
                    OFFSET -0.000 0.000 0.000
                    CHANNELS 6 Xposition Yposition Zposition Zrotation Xrotation Yrotation
                    End Site
                    {
                      OFFSET -0.000 0.000 0.000
                    }
                  }
                }
              }
              JOINT RightHandRing1
              {
                OFFSET -0.000 0.000 0.000
                CHANNELS 6 Xposition Yposition Zposition Zrotation Xrotation Yrotation
                JOINT RightHandRing2
                {
                  OFFSET -0.000 0.000 0.000
                  CHANNELS 6 Xposition Yposition Zposition Zrotation Xrotation Yrotation
                  JOINT RightHandRing3
                  {
                    OFFSET -0.000 0.000 0.000
                    CHANNELS 6 Xposition Yposition Zposition Zrotation Xrotation Yrotation
                    End Site
                    {
                      OFFSET -0.000 0.000 0.000
                    }
                  }
                }
              }
              JOINT RightHandPinky1
              {
                OFFSET -0.000 0.000 0.000
                CHANNELS 6 Xposition Yposition Zposition Zrotation Xrotation Yrotation
                JOINT RightHandPinky2
                {
                  OFFSET -0.000 0.000 0.000
                  CHANNELS 6 Xposition Yposition Zposition Zrotation Xrotation Yrotation
                  JOINT RightHandPinky3
                  {
                    OFFSET -0.000 0.000 0.000
                    CHANNELS 6 Xposition Yposition Zposition Zrotation Xrotation Yrotation
                    End Site
                    {
                      OFFSET -0.000 0.000 0.000
                    }
                  }
                }
              }
            }
          }
        }
      }
      JOINT Neck
      {
        OFFSET 0.000 0.753 0.000
        CHANNELS 6 Xposition Yposition Zposition Zrotation Xrotation Yrotation
        JOINT Head
        {
          OFFSET 0.000 6.855 0.000
          CHANNELS 6 Xposition Yposition Zposition Zrotation Xrotation Yrotation
          End Site
          {
            OFFSET 0.000 16.008 0.000
          }
        }
      }
    }
  }
}
MOTION
Frames:	4
Frame Time:	0.033333
128.04396 76.18232 -213.07916 -0.17592 7.58899 -77.03215 8.42336 1.90982 2.52018 20.33709 7.54233 82.27611 -0.00214 -26.71594 0.00000 4.04694 5.50584 -58.18788 -0.00112 -35.93692 0.00004 0.24236 0.88621 -15.29365 -3.32481 -0.17304 2.52018 10.30229 -21.85132 54.17855 0.00523 -37.11921 -0.00002 10.51781 17.49887 -19.84126 -0.00132 -28.74137 0.00007 6.61422 35.58681 -11.26907 0.00784 31.43085 0.01330 -1.46062 1.44566 0.23266 0.00035 23.18153 0.00001 -1.80176 1.79635 0.37499 1.01875 -0.23397 0.08680 -13.17982 1.11291 -4.74139 9.45272 -0.00003 0.01150 -58.41896 -50.76565 -13.55741 20.68349 0.00000 0.00445 -20.10746 -5.82066 -12.19651 25.05148 -0.00937 0.00000 -19.59361 -7.10781 14.42540 4.87700 -1.04399 3.60801 -41.57595 -8.45725 -7.72882 2.66499 -0.00001 0.00000 -0.00000 0.00000 5.00000 2.54301 0.00000 -0.00002 0.00001 0.00000 60.00000 9.23200 -0.30100 2.14400 -80.00000 -0.00000 -0.00000 4.22500 -0.00001 0.00000 -90.00000 -0.00000 0.00000 2.65400 0.00000 0.00000 -70.00001 0.00000 -0.00000 8.92001 0.00000 0.00001 -80.00000 -0.00000 -0.00000 4.86299 -0.00002 -0.00002 -90.00000 -0.00000 0.00000 2.76499 -0.00000 0.00001 -70.00001 0.00000 0.00000 8.68902 -0.12599 -2.08700 -80.00000 -0.00000 -0.00000 4.53800 -0.00002 -0.00002 -90.00000 -0.00000 0.00000 2.30501 0.00002 0.00001 -70.00001 0.00000 0.00000 8.39101 -0.81699 -3.75800 -80.00000 -0.00000 -0.00000 3.04399 -0.00001 0.00001 -90.00000 -0.00000 0.00000 1.97500 0.00000 0.00000 -70.00001 0.00000 -0.00000 -1.48489 -0.84963 0.08680 29.69384 1.65864 2.90576 -15.41684 -0.00437 0.00001 63.25286 39.82308 -2.82644 -24.40220 0.01423 0.00000 -14.33928 -3.41962 24.99905 -23.99123 -0.00001 0.00000 5.58269 -2.14809 11.50001 -4.87700 -1.04401 3.60799 37.43812 21.26626 8.20656 -2.66502 -0.00001 0.00000 -0.00000 -0.00000 -5.00000 -2.54300 0.00000 0.00000 0.00000 -0.00000 -60.00001 -9.23200 -0.30103 2.14401 79.99999 -0.00000 0.00001 -4.22500 0.00000 -0.00002 90.00000 0.00000 0.00001 -2.65399 -0.00002 0.00000 70.00000 -0.00001 0.00001 -8.91999 -0.00002 -0.00001 79.99999 -0.00000 0.00001 -4.86300 0.00001 0.00001 90.00000 0.00000 0.00001 -2.76500 0.00001 0.00000 70.00000 -0.00001 0.00001 -8.68900 -0.12602 -2.08699 79.99999 -0.00000 0.00001 -4.53798 0.00001 -0.00002 90.00000 0.00000 0.00001 -2.30502 0.00000 -0.00001 70.00000 -0.00001 0.00001 -8.39100 -0.81700 -3.75799 79.99999 -0.00000 0.00001 -3.04399 0.00000 0.00000 90.00000 0.00000 0.00001 -1.97499 0.00001 0.00005 70.00000 -0.00001 0.00001 -0.00004 0.76289 0.00000 -0.00007 0.00003 0.00001 -0.00006 6.86603 -0.00001 23.05062 23.08016 76.75962 
126.78701 74.75024 -212.40170 -0.50466 6.64000 -75.01933 8.35539 2.06265 2.64257 20.75972 10.89953 1.54596 -0.00214 -26.91346 0.00035 -4.71817 4.93427 3.70769 -0.00112 -35.14506 0.00004 0.03867 -0.75294 2.93714 -3.34653 -0.41538 2.64333 7.02368 -22.65040 -1.32133 0.00523 -36.29099 -0.00050 -6.91777 8.34100 19.11501 -0.00132 -28.68531 0.00007 -9.28364 39.45923 14.42755 0.00784 32.28468 0.01330 -1.65972 1.86359 0.27922 0.00035 23.59805 0.00001 -1.73918 2.12505 0.38461 1.03785 -0.23397 0.12221 -12.66622 1.47853 -6.55319 9.64303 -0.00028 0.01150 -42.91946 2.75909 -10.86218 21.12123 -0.00034 0.00445 -11.14059 6.35054 -21.05694 26.31691 -0.00937 0.00047 -10.09026 11.73713 -10.13349 4.87700 -1.04399 3.60801 -41.57595 -8.45725 -7.72882 2.66499 -0.00001 0.00000 -0.00000 0.00000 5.00000 2.54301 0.00000 -0.00002 0.00001 0.00000 60.00000 9.23200 -0.30100 2.14400 -80.00000 -0.00000 -0.00000 4.22500 -0.00001 0.00000 -90.00000 -0.00000 0.00000 2.65400 0.00000 0.00000 -70.00001 0.00000 -0.00000 8.92001 0.00000 0.00001 -80.00000 -0.00000 -0.00000 4.86299 -0.00002 -0.00002 -90.00000 -0.00000 0.00000 2.76499 -0.00000 0.00001 -70.00001 0.00000 0.00000 8.68902 -0.12599 -2.08700 -80.00000 -0.00000 -0.00000 4.53800 -0.00002 -0.00002 -90.00000 -0.00000 0.00000 2.30501 0.00002 0.00001 -70.00001 0.00000 0.00000 8.39101 -0.81699 -3.75800 -80.00000 -0.00000 -0.00000 3.04399 -0.00001 0.00001 -90.00000 -0.00000 0.00000 1.97500 0.00000 0.00000 -70.00001 0.00000 -0.00000 -1.47465 -0.89601 0.12216 31.10858 2.45466 4.05597 -15.56925 -0.00437 -0.00053 58.33985 9.15963 -0.99635 -24.99609 0.01423 -0.00051 2.22070 -1.14778 27.44445 -22.55757 -0.00001 0.00032 4.70065 -2.63114 19.21568 -4.87700 -1.04401 3.60799 37.43812 21.26626 8.20656 -2.66502 -0.00001 0.00000 -0.00000 -0.00000 -5.00000 -2.54300 0.00000 0.00000 0.00000 -0.00000 -60.00001 -9.23200 -0.30103 2.14401 79.99999 -0.00000 0.00001 -4.22500 0.00000 -0.00002 90.00000 0.00000 0.00001 -2.65399 -0.00002 0.00000 70.00000 -0.00001 0.00001 -8.91999 -0.00002 -0.00001 79.99999 -0.00000 0.00001 -4.86300 0.00001 0.00001 90.00000 0.00000 0.00001 -2.76500 0.00001 0.00000 70.00000 -0.00001 0.00001 -8.68900 -0.12602 -2.08699 79.99999 -0.00000 0.00001 -4.53798 0.00001 -0.00002 90.00000 0.00000 0.00001 -2.30502 0.00000 -0.00001 70.00000 -0.00001 0.00001 -8.39100 -0.81700 -3.75799 79.99999 -0.00000 0.00001 -3.04399 0.00000 0.00000 90.00000 0.00000 0.00001 -1.97499 0.00001 0.00005 70.00000 -0.00001 0.00001 -0.00004 0.77530 0.00000 -0.00007 0.00003 0.00001 -0.00006 6.97771 -0.00078 23.61915 22.71087 67.05729 
126.31742 74.40871 -212.11075 -0.18136 6.42617 -74.63109 8.33190 2.03238 2.68255 18.82871 9.37489 -2.60112 -0.00214 -26.91046 -0.00920 -4.92450 4.59283 6.80325 -0.00112 -34.96836 0.00558 0.10421 -1.40031 4.02117 -3.32995 -0.37668 2.66041 6.49531 -22.47982 -4.37683 0.00523 -36.34996 0.01444 -6.88260 6.36131 20.89760 -0.00132 -28.58497 0.00709 -7.74914 36.94986 12.64511 0.00784 32.39244 0.01330 -1.57388 1.84949 0.23715 0.00035 23.71203 0.00001 -1.69766 2.10479 0.33926 1.06213 -0.23397 0.12925 -12.34412 1.47624 -6.70160 9.86249 0.00772 0.01150 -42.04774 6.57130 -10.75673 21.25178 0.01069 0.00445 -11.78467 7.27644 -22.23722 26.43756 -0.00937 -0.01438 -8.31034 12.20714 -11.92785 4.87700 -1.04399 3.60801 -41.57595 -8.45725 -7.72882 2.66499 -0.00001 0.00000 -0.00000 0.00000 5.00000 2.54301 0.00000 -0.00002 0.00001 0.00000 60.00000 9.23200 -0.30100 2.14400 -80.00000 -0.00000 -0.00000 4.22500 -0.00001 0.00000 -90.00000 -0.00000 0.00000 2.65400 0.00000 0.00000 -70.00001 0.00000 -0.00000 8.92001 0.00000 0.00001 -80.00000 -0.00000 -0.00000 4.86299 -0.00002 -0.00002 -90.00000 -0.00000 0.00000 2.76499 -0.00000 0.00001 -70.00001 0.00000 0.00000 8.68902 -0.12599 -2.08700 -80.00000 -0.00000 -0.00000 4.53800 -0.00002 -0.00002 -90.00000 -0.00000 0.00000 2.30501 0.00002 0.00001 -70.00001 0.00000 0.00000 8.39101 -0.81699 -3.75800 -80.00000 -0.00000 -0.00000 3.04399 -0.00001 0.00001 -90.00000 -0.00000 0.00000 1.97500 0.00000 0.00000 -70.00001 0.00000 -0.00000 -1.47676 -0.88693 0.13021 30.80001 2.53527 4.25294 -15.54614 -0.00437 0.01565 57.86465 8.26755 -0.62613 -25.30346 0.01423 0.01613 2.95117 -0.82721 27.95199 -22.24371 -0.00318 -0.00970 5.17649 -1.75099 17.05362 -4.87700 -1.04401 3.60799 37.43812 21.26626 8.20656 -2.66502 -0.00001 0.00000 -0.00000 -0.00000 -5.00000 -2.54300 0.00000 0.00000 0.00000 -0.00000 -60.00001 -9.23200 -0.30103 2.14401 79.99999 -0.00000 0.00001 -4.22500 0.00000 -0.00002 90.00000 0.00000 0.00001 -2.65399 -0.00002 0.00000 70.00000 -0.00001 0.00001 -8.91999 -0.00002 -0.00001 79.99999 -0.00000 0.00001 -4.86300 0.00001 0.00001 90.00000 0.00000 0.00001 -2.76500 0.00001 0.00000 70.00000 -0.00001 0.00001 -8.68900 -0.12602 -2.08699 79.99999 -0.00000 0.00001 -4.53798 0.00001 -0.00002 90.00000 0.00000 0.00001 -2.30502 0.00000 -0.00001 70.00000 -0.00001 0.00001 -8.39100 -0.81700 -3.75799 79.99999 -0.00000 0.00001 -3.04399 0.00000 0.00000 90.00000 0.00000 0.00001 -1.97499 0.00001 0.00005 70.00000 -0.00001 0.00001 -0.00004 0.77932 0.00000 -0.00007 0.00003 0.00001 -0.00470 7.01376 0.02267 23.32749 22.20252 64.67989 
125.50909 74.06112 -211.64886 0.19064 6.02995 -73.72991 8.27947 1.97564 2.75171 18.03619 9.62911 -2.82184 0.00753 -26.79254 -0.03970 -4.88711 4.61291 6.46920 -0.00112 -34.85831 0.01039 0.16573 -1.95695 4.40328 -3.32062 -0.32415 2.70386 4.88932 -22.71831 -4.96319 0.00523 -36.22598 0.03019 -6.02870 3.22879 20.65033 0.00133 -28.43235 0.04034 -6.64643 36.18710 11.11495 0.00784 32.46085 0.01330 -1.48900 1.82862 0.13705 0.00035 23.79720 0.00001 -1.65953 2.07523 0.23692 1.11153 -0.23397 0.14278 -11.83894 1.49350 -7.02825 10.31419 0.03062 0.01150 -42.95064 7.62456 -9.76839 21.16285 0.01846 0.00445 -12.54087 7.36066 -23.90892 26.50101 -0.00937 -0.01737 -7.87896 11.34435 -11.02583 4.87700 -1.04399 3.60801 -41.57595 -8.45725 -7.72882 2.66499 -0.00001 0.00000 -0.00000 0.00000 5.00000 2.54301 0.00000 -0.00002 0.00001 0.00000 60.00000 9.23200 -0.30100 2.14400 -80.00000 -0.00000 -0.00000 4.22500 -0.00001 0.00000 -90.00000 -0.00000 0.00000 2.65400 0.00000 0.00000 -70.00001 0.00000 -0.00000 8.92001 0.00000 0.00001 -80.00000 -0.00000 -0.00000 4.86299 -0.00002 -0.00002 -90.00000 -0.00000 0.00000 2.76499 -0.00000 0.00001 -70.00001 0.00000 0.00000 8.68902 -0.12599 -2.08700 -80.00000 -0.00000 -0.00000 4.53800 -0.00002 -0.00002 -90.00000 -0.00000 0.00000 2.30501 0.00002 0.00001 -70.00001 0.00000 0.00000 8.39101 -0.81699 -3.75800 -80.00000 -0.00000 -0.00000 3.04399 -0.00001 0.00001 -90.00000 -0.00000 0.00000 1.97500 0.00000 0.00000 -70.00001 0.00000 -0.00000 -1.48196 -0.88043 0.15468 30.49083 2.75707 4.70685 -15.54807 -0.00437 0.03166 57.56347 8.61731 -0.80880 -25.47476 0.01423 0.02075 2.65974 -0.69922 28.24823 -21.81808 0.00834 -0.01357 4.11023 -2.10833 16.78818 -4.87700 -1.04401 3.60799 37.43812 21.26626 8.20656 -2.66502 -0.00001 0.00000 -0.00000 -0.00000 -5.00000 -2.54300 0.00000 0.00000 0.00000 -0.00000 -60.00001 -9.23200 -0.30103 2.14401 79.99999 -0.00000 0.00001 -4.22500 0.00000 -0.00002 90.00000 0.00000 0.00001 -2.65399 -0.00002 0.00000 70.00000 -0.00001 0.00001 -8.91999 -0.00002 -0.00001 79.99999 -0.00000 0.00001 -4.86300 0.00001 0.00001 90.00000 0.00000 0.00001 -2.76500 0.00001 0.00000 70.00000 -0.00001 0.00001 -8.68900 -0.12602 -2.08699 79.99999 -0.00000 0.00001 -4.53798 0.00001 -0.00002 90.00000 0.00000 0.00001 -2.30502 0.00000 -0.00001 70.00000 -0.00001 0.00001 -8.39100 -0.81700 -3.75799 79.99999 -0.00000 0.00001 -3.04399 0.00000 0.00000 90.00000 0.00000 0.00001 -1.97499 0.00001 0.00005 70.00000 -0.00001 0.00001 -0.00004 0.78223 0.00000 -0.00007 0.00003 0.00001 -0.01280 7.03778 0.04995 22.67628 21.55355 62.01125 
